<svg xmlns="http://www.w3.org/2000/svg" width="1400" height="642" viewBox="0 0 1400 642" role="img" aria-labelledby="title desc">
<title id="title">BlankClip fixed kernel scaling at 810p</title>
<desc id="desc">Old descale, current CPU, and master Metal throughput across the selected thread configurations.</desc>
<rect width="1400" height="642" fill="#ffffff"/>
<text x="700.0" y="31" text-anchor="middle" font-family="sans-serif" font-size="23" font-weight="700" fill="#111827">BlankClip fixed kernel scaling at 810p</text>
<text x="700.0" y="56" text-anchor="middle" font-family="sans-serif" font-size="13" fill="#475569">8,000 in-memory source frames; FPS is external VSPipe wall-clock throughput</text>
<line x1="464.0" y1="74" x2="494.0" y2="74" stroke="#475569" stroke-width="3"/>
<circle cx="479.0" cy="74" r="4" fill="#475569"/>
<text x="504.0" y="79" font-family="sans-serif" font-size="13" fill="#374151">old descale</text>
<line x1="640.0" y1="74" x2="670.0" y2="74" stroke="#dc2626" stroke-width="3"/>
<circle cx="655.0" cy="74" r="4" fill="#dc2626"/>
<text x="680.0" y="79" font-family="sans-serif" font-size="13" fill="#374151">current CPU</text>
<line x1="816.0" y1="74" x2="846.0" y2="74" stroke="#0f766e" stroke-width="3"/>
<circle cx="831.0" cy="74" r="4" fill="#0f766e"/>
<text x="856.0" y="79" font-family="sans-serif" font-size="13" fill="#374151">master Metal</text>
<g font-family="sans-serif">
<rect x="25" y="92" width="252" height="230" fill="#f8fafc" stroke="#cbd5e1"/>
<text x="151.0" y="116" text-anchor="middle" font-size="14" font-weight="700" fill="#111827">bilinear</text>
<line x1="77" y1="130" x2="77" y2="314" stroke="#334155"/>
<line x1="77" y1="314" x2="273" y2="314" stroke="#334155"/>
<line x1="77" y1="314.00" x2="273" y2="314.00" stroke="#e2e8f0"/>
<text x="70" y="318.00" text-anchor="end" font-size="9" fill="#475569">0</text>
<line x1="77" y1="222.00" x2="273" y2="222.00" stroke="#e2e8f0"/>
<text x="70" y="226.00" text-anchor="end" font-size="9" fill="#475569">2748</text>
<line x1="77" y1="130.00" x2="273" y2="130.00" stroke="#e2e8f0"/>
<text x="70" y="134.00" text-anchor="end" font-size="9" fill="#475569">5496</text>
<text x="77.00" y="331" text-anchor="middle" font-size="10" fill="#475569">1</text>
<text x="142.33" y="331" text-anchor="middle" font-size="10" fill="#475569">8</text>
<text x="207.67" y="331" text-anchor="middle" font-size="10" fill="#475569">16</text>
<text x="273.00" y="331" text-anchor="middle" font-size="10" fill="#475569">32</text>
<polyline points="77.00,308.43 142.33,271.94 207.67,251.89 273.00,251.63" fill="none" stroke="#475569" stroke-width="2.5"/>
<circle cx="77.00" cy="308.43" r="3.4" fill="#475569"/>
<circle cx="142.33" cy="271.94" r="3.4" fill="#475569"/>
<circle cx="207.67" cy="251.89" r="3.4" fill="#475569"/>
<circle cx="273.00" cy="251.63" r="3.4" fill="#475569"/>
<polyline points="77.00,257.35 142.33,178.02 207.67,149.71 273.00,157.31" fill="none" stroke="#dc2626" stroke-width="2.5"/>
<circle cx="77.00" cy="257.35" r="3.4" fill="#dc2626"/>
<circle cx="142.33" cy="178.02" r="3.4" fill="#dc2626"/>
<circle cx="207.67" cy="149.71" r="3.4" fill="#dc2626"/>
<circle cx="273.00" cy="157.31" r="3.4" fill="#dc2626"/>
<polyline points="77.00,272.23 142.33,231.14 207.67,206.09 273.00,215.98" fill="none" stroke="#0f766e" stroke-width="2.5"/>
<circle cx="77.00" cy="272.23" r="3.4" fill="#0f766e"/>
<circle cx="142.33" cy="231.14" r="3.4" fill="#0f766e"/>
<circle cx="207.67" cy="206.09" r="3.4" fill="#0f766e"/>
<circle cx="273.00" cy="215.98" r="3.4" fill="#0f766e"/>
</g>
<g font-family="sans-serif">
<rect x="295" y="92" width="252" height="230" fill="#f8fafc" stroke="#cbd5e1"/>
<text x="421.0" y="116" text-anchor="middle" font-size="14" font-weight="700" fill="#111827">bicubic (0, 0.5)</text>
<line x1="347" y1="130" x2="347" y2="314" stroke="#334155"/>
<line x1="347" y1="314" x2="543" y2="314" stroke="#334155"/>
<line x1="347" y1="314.00" x2="543" y2="314.00" stroke="#e2e8f0"/>
<text x="340" y="318.00" text-anchor="end" font-size="9" fill="#475569">0</text>
<line x1="347" y1="222.00" x2="543" y2="222.00" stroke="#e2e8f0"/>
<text x="340" y="226.00" text-anchor="end" font-size="9" fill="#475569">2479</text>
<line x1="347" y1="130.00" x2="543" y2="130.00" stroke="#e2e8f0"/>
<text x="340" y="134.00" text-anchor="end" font-size="9" fill="#475569">4958</text>
<text x="347.00" y="331" text-anchor="middle" font-size="10" fill="#475569">1</text>
<text x="412.33" y="331" text-anchor="middle" font-size="10" fill="#475569">8</text>
<text x="477.67" y="331" text-anchor="middle" font-size="10" fill="#475569">16</text>
<text x="543.00" y="331" text-anchor="middle" font-size="10" fill="#475569">32</text>
<polyline points="347.00,311.26 412.33,295.19 477.67,283.73 543.00,283.81" fill="none" stroke="#475569" stroke-width="2.5"/>
<circle cx="347.00" cy="311.26" r="3.4" fill="#475569"/>
<circle cx="412.33" cy="295.19" r="3.4" fill="#475569"/>
<circle cx="477.67" cy="283.73" r="3.4" fill="#475569"/>
<circle cx="543.00" cy="283.81" r="3.4" fill="#475569"/>
<polyline points="347.00,256.52 412.33,173.85 477.67,149.71 543.00,153.07" fill="none" stroke="#dc2626" stroke-width="2.5"/>
<circle cx="347.00" cy="256.52" r="3.4" fill="#dc2626"/>
<circle cx="412.33" cy="173.85" r="3.4" fill="#dc2626"/>
<circle cx="477.67" cy="149.71" r="3.4" fill="#dc2626"/>
<circle cx="543.00" cy="153.07" r="3.4" fill="#dc2626"/>
<polyline points="347.00,270.55 412.33,226.19 477.67,197.57 543.00,204.22" fill="none" stroke="#0f766e" stroke-width="2.5"/>
<circle cx="347.00" cy="270.55" r="3.4" fill="#0f766e"/>
<circle cx="412.33" cy="226.19" r="3.4" fill="#0f766e"/>
<circle cx="477.67" cy="197.57" r="3.4" fill="#0f766e"/>
<circle cx="543.00" cy="204.22" r="3.4" fill="#0f766e"/>
</g>
<g font-family="sans-serif">
<rect x="565" y="92" width="252" height="230" fill="#f8fafc" stroke="#cbd5e1"/>
<text x="691.0" y="116" text-anchor="middle" font-size="14" font-weight="700" fill="#111827">lanczos2</text>
<line x1="617" y1="130" x2="617" y2="314" stroke="#334155"/>
<line x1="617" y1="314" x2="813" y2="314" stroke="#334155"/>
<line x1="617" y1="314.00" x2="813" y2="314.00" stroke="#e2e8f0"/>
<text x="610" y="318.00" text-anchor="end" font-size="9" fill="#475569">0</text>
<line x1="617" y1="222.00" x2="813" y2="222.00" stroke="#e2e8f0"/>
<text x="610" y="226.00" text-anchor="end" font-size="9" fill="#475569">2522</text>
<line x1="617" y1="130.00" x2="813" y2="130.00" stroke="#e2e8f0"/>
<text x="610" y="134.00" text-anchor="end" font-size="9" fill="#475569">5043</text>
<text x="617.00" y="331" text-anchor="middle" font-size="10" fill="#475569">1</text>
<text x="682.33" y="331" text-anchor="middle" font-size="10" fill="#475569">8</text>
<text x="747.67" y="331" text-anchor="middle" font-size="10" fill="#475569">16</text>
<text x="813.00" y="331" text-anchor="middle" font-size="10" fill="#475569">32</text>
<polyline points="617.00,311.47 682.33,296.71 747.67,283.23 813.00,283.73" fill="none" stroke="#475569" stroke-width="2.5"/>
<circle cx="617.00" cy="311.47" r="3.4" fill="#475569"/>
<circle cx="682.33" cy="296.71" r="3.4" fill="#475569"/>
<circle cx="747.67" cy="283.23" r="3.4" fill="#475569"/>
<circle cx="813.00" cy="283.73" r="3.4" fill="#475569"/>
<polyline points="617.00,257.53 682.33,175.69 747.67,149.71 813.00,156.39" fill="none" stroke="#dc2626" stroke-width="2.5"/>
<circle cx="617.00" cy="257.53" r="3.4" fill="#dc2626"/>
<circle cx="682.33" cy="175.69" r="3.4" fill="#dc2626"/>
<circle cx="747.67" cy="149.71" r="3.4" fill="#dc2626"/>
<circle cx="813.00" cy="156.39" r="3.4" fill="#dc2626"/>
<polyline points="617.00,271.41 682.33,226.99 747.67,203.01 813.00,207.82" fill="none" stroke="#0f766e" stroke-width="2.5"/>
<circle cx="617.00" cy="271.41" r="3.4" fill="#0f766e"/>
<circle cx="682.33" cy="226.99" r="3.4" fill="#0f766e"/>
<circle cx="747.67" cy="203.01" r="3.4" fill="#0f766e"/>
<circle cx="813.00" cy="207.82" r="3.4" fill="#0f766e"/>
</g>
<g font-family="sans-serif">
<rect x="835" y="92" width="252" height="230" fill="#f8fafc" stroke="#cbd5e1"/>
<text x="961.0" y="116" text-anchor="middle" font-size="14" font-weight="700" fill="#111827">lanczos3</text>
<line x1="887" y1="130" x2="887" y2="314" stroke="#334155"/>
<line x1="887" y1="314" x2="1083" y2="314" stroke="#334155"/>
<line x1="887" y1="314.00" x2="1083" y2="314.00" stroke="#e2e8f0"/>
<text x="880" y="318.00" text-anchor="end" font-size="9" fill="#475569">0</text>
<line x1="887" y1="222.00" x2="1083" y2="222.00" stroke="#e2e8f0"/>
<text x="880" y="226.00" text-anchor="end" font-size="9" fill="#475569">1410</text>
<line x1="887" y1="130.00" x2="1083" y2="130.00" stroke="#e2e8f0"/>
<text x="880" y="134.00" text-anchor="end" font-size="9" fill="#475569">2821</text>
<text x="887.00" y="331" text-anchor="middle" font-size="10" fill="#475569">1</text>
<text x="952.33" y="331" text-anchor="middle" font-size="10" fill="#475569">8</text>
<text x="1017.67" y="331" text-anchor="middle" font-size="10" fill="#475569">16</text>
<text x="1083.00" y="331" text-anchor="middle" font-size="10" fill="#475569">32</text>
<polyline points="887.00,310.96 952.33,291.84 1017.67,278.60 1083.00,278.59" fill="none" stroke="#475569" stroke-width="2.5"/>
<circle cx="887.00" cy="310.96" r="3.4" fill="#475569"/>
<circle cx="952.33" cy="291.84" r="3.4" fill="#475569"/>
<circle cx="1017.67" cy="278.60" r="3.4" fill="#475569"/>
<circle cx="1083.00" cy="278.59" r="3.4" fill="#475569"/>
<polyline points="887.00,261.41 952.33,178.35 1017.67,149.71 1083.00,155.19" fill="none" stroke="#dc2626" stroke-width="2.5"/>
<circle cx="887.00" cy="261.41" r="3.4" fill="#dc2626"/>
<circle cx="952.33" cy="178.35" r="3.4" fill="#dc2626"/>
<circle cx="1017.67" cy="149.71" r="3.4" fill="#dc2626"/>
<circle cx="1083.00" cy="155.19" r="3.4" fill="#dc2626"/>
<polyline points="887.00,275.79 952.33,234.38 1017.67,203.04 1083.00,207.55" fill="none" stroke="#0f766e" stroke-width="2.5"/>
<circle cx="887.00" cy="275.79" r="3.4" fill="#0f766e"/>
<circle cx="952.33" cy="234.38" r="3.4" fill="#0f766e"/>
<circle cx="1017.67" cy="203.04" r="3.4" fill="#0f766e"/>
<circle cx="1083.00" cy="207.55" r="3.4" fill="#0f766e"/>
</g>
<g font-family="sans-serif">
<rect x="1105" y="92" width="252" height="230" fill="#f8fafc" stroke="#cbd5e1"/>
<text x="1231.0" y="116" text-anchor="middle" font-size="14" font-weight="700" fill="#111827">lanczos4</text>
<line x1="1157" y1="130" x2="1157" y2="314" stroke="#334155"/>
<line x1="1157" y1="314" x2="1353" y2="314" stroke="#334155"/>
<line x1="1157" y1="314.00" x2="1353" y2="314.00" stroke="#e2e8f0"/>
<text x="1150" y="318.00" text-anchor="end" font-size="9" fill="#475569">0</text>
<line x1="1157" y1="222.00" x2="1353" y2="222.00" stroke="#e2e8f0"/>
<text x="1150" y="226.00" text-anchor="end" font-size="9" fill="#475569">1146</text>
<line x1="1157" y1="130.00" x2="1353" y2="130.00" stroke="#e2e8f0"/>
<text x="1150" y="134.00" text-anchor="end" font-size="9" fill="#475569">2291</text>
<text x="1157.00" y="331" text-anchor="middle" font-size="10" fill="#475569">1</text>
<text x="1222.33" y="331" text-anchor="middle" font-size="10" fill="#475569">8</text>
<text x="1287.67" y="331" text-anchor="middle" font-size="10" fill="#475569">16</text>
<text x="1353.00" y="331" text-anchor="middle" font-size="10" fill="#475569">32</text>
<polyline points="1157.00,310.89 1222.33,291.32 1287.67,278.54 1353.00,279.16" fill="none" stroke="#475569" stroke-width="2.5"/>
<circle cx="1157.00" cy="310.89" r="3.4" fill="#475569"/>
<circle cx="1222.33" cy="291.32" r="3.4" fill="#475569"/>
<circle cx="1287.67" cy="278.54" r="3.4" fill="#475569"/>
<circle cx="1353.00" cy="279.16" r="3.4" fill="#475569"/>
<polyline points="1157.00,258.27 1222.33,174.77 1287.67,149.71 1353.00,154.24" fill="none" stroke="#dc2626" stroke-width="2.5"/>
<circle cx="1157.00" cy="258.27" r="3.4" fill="#dc2626"/>
<circle cx="1222.33" cy="174.77" r="3.4" fill="#dc2626"/>
<circle cx="1287.67" cy="149.71" r="3.4" fill="#dc2626"/>
<circle cx="1353.00" cy="154.24" r="3.4" fill="#dc2626"/>
<polyline points="1157.00,271.80 1222.33,227.70 1287.67,183.20 1353.00,186.24" fill="none" stroke="#0f766e" stroke-width="2.5"/>
<circle cx="1157.00" cy="271.80" r="3.4" fill="#0f766e"/>
<circle cx="1222.33" cy="227.70" r="3.4" fill="#0f766e"/>
<circle cx="1287.67" cy="183.20" r="3.4" fill="#0f766e"/>
<circle cx="1353.00" cy="186.24" r="3.4" fill="#0f766e"/>
</g>
<g font-family="sans-serif">
<rect x="25" y="352" width="252" height="230" fill="#f8fafc" stroke="#cbd5e1"/>
<text x="151.0" y="376" text-anchor="middle" font-size="14" font-weight="700" fill="#111827">lanczos5</text>
<line x1="77" y1="390" x2="77" y2="574" stroke="#334155"/>
<line x1="77" y1="574" x2="273" y2="574" stroke="#334155"/>
<line x1="77" y1="574.00" x2="273" y2="574.00" stroke="#e2e8f0"/>
<text x="70" y="578.00" text-anchor="end" font-size="9" fill="#475569">0</text>
<line x1="77" y1="482.00" x2="273" y2="482.00" stroke="#e2e8f0"/>
<text x="70" y="486.00" text-anchor="end" font-size="9" fill="#475569">811</text>
<line x1="77" y1="390.00" x2="273" y2="390.00" stroke="#e2e8f0"/>
<text x="70" y="394.00" text-anchor="end" font-size="9" fill="#475569">1622</text>
<text x="77.00" y="591" text-anchor="middle" font-size="10" fill="#475569">1</text>
<text x="142.33" y="591" text-anchor="middle" font-size="10" fill="#475569">8</text>
<text x="207.67" y="591" text-anchor="middle" font-size="10" fill="#475569">16</text>
<text x="273.00" y="591" text-anchor="middle" font-size="10" fill="#475569">32</text>
<polyline points="77.00,570.56 142.33,547.61 207.67,533.82 273.00,534.00" fill="none" stroke="#475569" stroke-width="2.5"/>
<circle cx="77.00" cy="570.56" r="3.4" fill="#475569"/>
<circle cx="142.33" cy="547.61" r="3.4" fill="#475569"/>
<circle cx="207.67" cy="533.82" r="3.4" fill="#475569"/>
<circle cx="273.00" cy="534.00" r="3.4" fill="#475569"/>
<polyline points="77.00,532.23 142.33,458.18 207.67,428.64 273.00,432.44" fill="none" stroke="#dc2626" stroke-width="2.5"/>
<circle cx="77.00" cy="532.23" r="3.4" fill="#dc2626"/>
<circle cx="142.33" cy="458.18" r="3.4" fill="#dc2626"/>
<circle cx="207.67" cy="428.64" r="3.4" fill="#dc2626"/>
<circle cx="273.00" cy="432.44" r="3.4" fill="#dc2626"/>
<polyline points="77.00,538.33 142.33,473.96 207.67,429.06 273.00,409.71" fill="none" stroke="#0f766e" stroke-width="2.5"/>
<circle cx="77.00" cy="538.33" r="3.4" fill="#0f766e"/>
<circle cx="142.33" cy="473.96" r="3.4" fill="#0f766e"/>
<circle cx="207.67" cy="429.06" r="3.4" fill="#0f766e"/>
<circle cx="273.00" cy="409.71" r="3.4" fill="#0f766e"/>
</g>
<g font-family="sans-serif">
<rect x="295" y="352" width="252" height="230" fill="#f8fafc" stroke="#cbd5e1"/>
<text x="421.0" y="376" text-anchor="middle" font-size="14" font-weight="700" fill="#111827">lanczos6</text>
<line x1="347" y1="390" x2="347" y2="574" stroke="#334155"/>
<line x1="347" y1="574" x2="543" y2="574" stroke="#334155"/>
<line x1="347" y1="574.00" x2="543" y2="574.00" stroke="#e2e8f0"/>
<text x="340" y="578.00" text-anchor="end" font-size="9" fill="#475569">0</text>
<line x1="347" y1="482.00" x2="543" y2="482.00" stroke="#e2e8f0"/>
<text x="340" y="486.00" text-anchor="end" font-size="9" fill="#475569">727</text>
<line x1="347" y1="390.00" x2="543" y2="390.00" stroke="#e2e8f0"/>
<text x="340" y="394.00" text-anchor="end" font-size="9" fill="#475569">1453</text>
<text x="347.00" y="591" text-anchor="middle" font-size="10" fill="#475569">1</text>
<text x="412.33" y="591" text-anchor="middle" font-size="10" fill="#475569">8</text>
<text x="477.67" y="591" text-anchor="middle" font-size="10" fill="#475569">16</text>
<text x="543.00" y="591" text-anchor="middle" font-size="10" fill="#475569">32</text>
<polyline points="347.00,570.12 412.33,544.28 477.67,530.79 543.00,530.44" fill="none" stroke="#475569" stroke-width="2.5"/>
<circle cx="347.00" cy="570.12" r="3.4" fill="#475569"/>
<circle cx="412.33" cy="544.28" r="3.4" fill="#475569"/>
<circle cx="477.67" cy="530.79" r="3.4" fill="#475569"/>
<circle cx="543.00" cy="530.44" r="3.4" fill="#475569"/>
<polyline points="347.00,534.49 412.33,468.96 477.67,441.87 543.00,444.42" fill="none" stroke="#dc2626" stroke-width="2.5"/>
<circle cx="347.00" cy="534.49" r="3.4" fill="#dc2626"/>
<circle cx="412.33" cy="468.96" r="3.4" fill="#dc2626"/>
<circle cx="477.67" cy="441.87" r="3.4" fill="#dc2626"/>
<circle cx="543.00" cy="444.42" r="3.4" fill="#dc2626"/>
<polyline points="347.00,539.74 412.33,477.04 477.67,437.19 543.00,409.71" fill="none" stroke="#0f766e" stroke-width="2.5"/>
<circle cx="347.00" cy="539.74" r="3.4" fill="#0f766e"/>
<circle cx="412.33" cy="477.04" r="3.4" fill="#0f766e"/>
<circle cx="477.67" cy="437.19" r="3.4" fill="#0f766e"/>
<circle cx="543.00" cy="409.71" r="3.4" fill="#0f766e"/>
</g>
<g font-family="sans-serif">
<rect x="565" y="352" width="252" height="230" fill="#f8fafc" stroke="#cbd5e1"/>
<text x="691.0" y="376" text-anchor="middle" font-size="14" font-weight="700" fill="#111827">spline16</text>
<line x1="617" y1="390" x2="617" y2="574" stroke="#334155"/>
<line x1="617" y1="574" x2="813" y2="574" stroke="#334155"/>
<line x1="617" y1="574.00" x2="813" y2="574.00" stroke="#e2e8f0"/>
<text x="610" y="578.00" text-anchor="end" font-size="9" fill="#475569">0</text>
<line x1="617" y1="482.00" x2="813" y2="482.00" stroke="#e2e8f0"/>
<text x="610" y="486.00" text-anchor="end" font-size="9" fill="#475569">2475</text>
<line x1="617" y1="390.00" x2="813" y2="390.00" stroke="#e2e8f0"/>
<text x="610" y="394.00" text-anchor="end" font-size="9" fill="#475569">4950</text>
<text x="617.00" y="591" text-anchor="middle" font-size="10" fill="#475569">1</text>
<text x="682.33" y="591" text-anchor="middle" font-size="10" fill="#475569">8</text>
<text x="747.67" y="591" text-anchor="middle" font-size="10" fill="#475569">16</text>
<text x="813.00" y="591" text-anchor="middle" font-size="10" fill="#475569">32</text>
<polyline points="617.00,571.52 682.33,553.75 747.67,545.46 813.00,542.91" fill="none" stroke="#475569" stroke-width="2.5"/>
<circle cx="617.00" cy="571.52" r="3.4" fill="#475569"/>
<circle cx="682.33" cy="553.75" r="3.4" fill="#475569"/>
<circle cx="747.67" cy="545.46" r="3.4" fill="#475569"/>
<circle cx="813.00" cy="542.91" r="3.4" fill="#475569"/>
<polyline points="617.00,516.17 682.33,434.29 747.67,409.71 813.00,411.23" fill="none" stroke="#dc2626" stroke-width="2.5"/>
<circle cx="617.00" cy="516.17" r="3.4" fill="#dc2626"/>
<circle cx="682.33" cy="434.29" r="3.4" fill="#dc2626"/>
<circle cx="747.67" cy="409.71" r="3.4" fill="#dc2626"/>
<circle cx="813.00" cy="411.23" r="3.4" fill="#dc2626"/>
<polyline points="617.00,530.50 682.33,485.01 747.67,467.14 813.00,468.03" fill="none" stroke="#0f766e" stroke-width="2.5"/>
<circle cx="617.00" cy="530.50" r="3.4" fill="#0f766e"/>
<circle cx="682.33" cy="485.01" r="3.4" fill="#0f766e"/>
<circle cx="747.67" cy="467.14" r="3.4" fill="#0f766e"/>
<circle cx="813.00" cy="468.03" r="3.4" fill="#0f766e"/>
</g>
<g font-family="sans-serif">
<rect x="835" y="352" width="252" height="230" fill="#f8fafc" stroke="#cbd5e1"/>
<text x="961.0" y="376" text-anchor="middle" font-size="14" font-weight="700" fill="#111827">spline36</text>
<line x1="887" y1="390" x2="887" y2="574" stroke="#334155"/>
<line x1="887" y1="574" x2="1083" y2="574" stroke="#334155"/>
<line x1="887" y1="574.00" x2="1083" y2="574.00" stroke="#e2e8f0"/>
<text x="880" y="578.00" text-anchor="end" font-size="9" fill="#475569">0</text>
<line x1="887" y1="482.00" x2="1083" y2="482.00" stroke="#e2e8f0"/>
<text x="880" y="486.00" text-anchor="end" font-size="9" fill="#475569">1363</text>
<line x1="887" y1="390.00" x2="1083" y2="390.00" stroke="#e2e8f0"/>
<text x="880" y="394.00" text-anchor="end" font-size="9" fill="#475569">2727</text>
<text x="887.00" y="591" text-anchor="middle" font-size="10" fill="#475569">1</text>
<text x="952.33" y="591" text-anchor="middle" font-size="10" fill="#475569">8</text>
<text x="1017.67" y="591" text-anchor="middle" font-size="10" fill="#475569">16</text>
<text x="1083.00" y="591" text-anchor="middle" font-size="10" fill="#475569">32</text>
<polyline points="887.00,570.85 952.33,549.71 1017.67,537.61 1083.00,537.42" fill="none" stroke="#475569" stroke-width="2.5"/>
<circle cx="887.00" cy="570.85" r="3.4" fill="#475569"/>
<circle cx="952.33" cy="549.71" r="3.4" fill="#475569"/>
<circle cx="1017.67" cy="537.61" r="3.4" fill="#475569"/>
<circle cx="1083.00" cy="537.42" r="3.4" fill="#475569"/>
<polyline points="887.00,519.56 952.33,439.46 1017.67,409.71 1083.00,410.68" fill="none" stroke="#dc2626" stroke-width="2.5"/>
<circle cx="887.00" cy="519.56" r="3.4" fill="#dc2626"/>
<circle cx="952.33" cy="439.46" r="3.4" fill="#dc2626"/>
<circle cx="1017.67" cy="409.71" r="3.4" fill="#dc2626"/>
<circle cx="1083.00" cy="410.68" r="3.4" fill="#dc2626"/>
<polyline points="887.00,534.40 952.33,491.97 1017.67,465.29 1083.00,460.26" fill="none" stroke="#0f766e" stroke-width="2.5"/>
<circle cx="887.00" cy="534.40" r="3.4" fill="#0f766e"/>
<circle cx="952.33" cy="491.97" r="3.4" fill="#0f766e"/>
<circle cx="1017.67" cy="465.29" r="3.4" fill="#0f766e"/>
<circle cx="1083.00" cy="460.26" r="3.4" fill="#0f766e"/>
</g>
<g font-family="sans-serif">
<rect x="1105" y="352" width="252" height="230" fill="#f8fafc" stroke="#cbd5e1"/>
<text x="1231.0" y="376" text-anchor="middle" font-size="14" font-weight="700" fill="#111827">spline64</text>
<line x1="1157" y1="390" x2="1157" y2="574" stroke="#334155"/>
<line x1="1157" y1="574" x2="1353" y2="574" stroke="#334155"/>
<line x1="1157" y1="574.00" x2="1353" y2="574.00" stroke="#e2e8f0"/>
<text x="1150" y="578.00" text-anchor="end" font-size="9" fill="#475569">0</text>
<line x1="1157" y1="482.00" x2="1353" y2="482.00" stroke="#e2e8f0"/>
<text x="1150" y="486.00" text-anchor="end" font-size="9" fill="#475569">1121</text>
<line x1="1157" y1="390.00" x2="1353" y2="390.00" stroke="#e2e8f0"/>
<text x="1150" y="394.00" text-anchor="end" font-size="9" fill="#475569">2242</text>
<text x="1157.00" y="591" text-anchor="middle" font-size="10" fill="#475569">1</text>
<text x="1222.33" y="591" text-anchor="middle" font-size="10" fill="#475569">8</text>
<text x="1287.67" y="591" text-anchor="middle" font-size="10" fill="#475569">16</text>
<text x="1353.00" y="591" text-anchor="middle" font-size="10" fill="#475569">32</text>
<polyline points="1157.00,570.86 1222.33,549.90 1287.67,538.53 1353.00,538.05" fill="none" stroke="#475569" stroke-width="2.5"/>
<circle cx="1157.00" cy="570.86" r="3.4" fill="#475569"/>
<circle cx="1222.33" cy="549.90" r="3.4" fill="#475569"/>
<circle cx="1287.67" cy="538.53" r="3.4" fill="#475569"/>
<circle cx="1353.00" cy="538.05" r="3.4" fill="#475569"/>
<polyline points="1157.00,516.87 1222.33,436.35 1287.67,409.71 1353.00,413.40" fill="none" stroke="#dc2626" stroke-width="2.5"/>
<circle cx="1157.00" cy="516.87" r="3.4" fill="#dc2626"/>
<circle cx="1222.33" cy="436.35" r="3.4" fill="#dc2626"/>
<circle cx="1287.67" cy="409.71" r="3.4" fill="#dc2626"/>
<circle cx="1353.00" cy="413.40" r="3.4" fill="#dc2626"/>
<polyline points="1157.00,530.81 1222.33,485.79 1287.67,445.84 1353.00,448.73" fill="none" stroke="#0f766e" stroke-width="2.5"/>
<circle cx="1157.00" cy="530.81" r="3.4" fill="#0f766e"/>
<circle cx="1222.33" cy="485.79" r="3.4" fill="#0f766e"/>
<circle cx="1287.67" cy="445.84" r="3.4" fill="#0f766e"/>
<circle cx="1353.00" cy="448.73" r="3.4" fill="#0f766e"/>
</g>
</svg>
