<svg xmlns="http://www.w3.org/2000/svg" width="1160" height="438" viewBox="0 0 1160 438" role="img" aria-labelledby="title desc">
<title id="title">E2E candidate thread scaling</title>
<desc id="desc">old, JET and new CPU/CUDA/Vulkan candidates per second across R1T1, R8T8, R16T16 and R32T32.</desc>
<rect width="1160" height="438" fill="#ffffff"/>
<text x="580.0" y="31" text-anchor="middle" font-family="sans-serif" font-size="24" font-weight="700" fill="#111827">E2E candidate scaling</text>
<text x="580.0" y="56" text-anchor="middle" font-family="sans-serif" font-size="13" fill="#475569">Full candidate sweep; higher candidates/s is better</text>
<line x1="225.0" y1="90" x2="255.0" y2="90" stroke="#64748b" stroke-width="3"/>
<circle cx="240.0" cy="90" r="4" fill="#64748b"/>
<text x="265.0" y="95" font-family="sans-serif" font-size="13" fill="#374151">old descale</text>
<line x1="375.0" y1="90" x2="405.0" y2="90" stroke="#d97706" stroke-width="3"/>
<circle cx="390.0" cy="90" r="4" fill="#d97706"/>
<text x="415.0" y="95" font-family="sans-serif" font-size="13" fill="#374151">JET descale</text>
<line x1="525.0" y1="90" x2="555.0" y2="90" stroke="#2563eb" stroke-width="3"/>
<circle cx="540.0" cy="90" r="4" fill="#2563eb"/>
<text x="565.0" y="95" font-family="sans-serif" font-size="13" fill="#374151">new CPU</text>
<line x1="675.0" y1="90" x2="705.0" y2="90" stroke="#dc2626" stroke-width="3"/>
<circle cx="690.0" cy="90" r="4" fill="#dc2626"/>
<text x="715.0" y="95" font-family="sans-serif" font-size="13" fill="#374151">new CUDA</text>
<line x1="825.0" y1="90" x2="855.0" y2="90" stroke="#0f766e" stroke-width="3"/>
<circle cx="840.0" cy="90" r="4" fill="#0f766e"/>
<text x="865.0" y="95" font-family="sans-serif" font-size="13" fill="#374151">new Vulkan</text>
<g font-family="sans-serif">
<rect x="25" y="108" width="332" height="270" fill="#f8fafc" stroke="#cbd5e1"/>
<text x="191.0" y="131" text-anchor="middle" font-size="15" font-weight="700" fill="#111827">getfnative</text>
<line x1="77" y1="144" x2="77" y2="350" stroke="#334155"/>
<line x1="77" y1="350" x2="353" y2="350" stroke="#334155"/>
<line x1="77" y1="350.00" x2="353" y2="350.00" stroke="#e2e8f0"/>
<text x="70" y="354.00" text-anchor="end" font-size="9" fill="#475569">0</text>
<line x1="77" y1="247.00" x2="353" y2="247.00" stroke="#e2e8f0"/>
<text x="70" y="251.00" text-anchor="end" font-size="9" fill="#475569">251</text>
<line x1="77" y1="144.00" x2="353" y2="144.00" stroke="#e2e8f0"/>
<text x="70" y="148.00" text-anchor="end" font-size="9" fill="#475569">503</text>
<text x="77.00" y="367" text-anchor="middle" font-size="10" fill="#475569">1</text>
<text x="169.00" y="367" text-anchor="middle" font-size="10" fill="#475569">8</text>
<text x="261.00" y="367" text-anchor="middle" font-size="10" fill="#475569">16</text>
<text x="353.00" y="367" text-anchor="middle" font-size="10" fill="#475569">32</text>
<polyline points="77.00,343.80 169.00,327.35 261.00,325.60 353.00,326.56" fill="none" stroke="#64748b" stroke-width="2.5"/>
<circle cx="77.00" cy="343.80" r="3.5" fill="#64748b"/>
<circle cx="169.00" cy="327.35" r="3.5" fill="#64748b"/>
<circle cx="261.00" cy="325.60" r="3.5" fill="#64748b"/>
<circle cx="353.00" cy="326.56" r="3.5" fill="#64748b"/>
<polyline points="77.00,343.57 169.00,327.06 261.00,325.59 353.00,326.56" fill="none" stroke="#d97706" stroke-width="2.5"/>
<circle cx="77.00" cy="343.57" r="3.5" fill="#d97706"/>
<circle cx="169.00" cy="327.06" r="3.5" fill="#d97706"/>
<circle cx="261.00" cy="325.59" r="3.5" fill="#d97706"/>
<circle cx="353.00" cy="326.56" r="3.5" fill="#d97706"/>
<polyline points="77.00,294.80 169.00,183.73 261.00,188.92 353.00,198.31" fill="none" stroke="#2563eb" stroke-width="2.5"/>
<circle cx="77.00" cy="294.80" r="3.5" fill="#2563eb"/>
<circle cx="169.00" cy="183.73" r="3.5" fill="#2563eb"/>
<circle cx="261.00" cy="188.92" r="3.5" fill="#2563eb"/>
<circle cx="353.00" cy="198.31" r="3.5" fill="#2563eb"/>
<polyline points="77.00,287.49 169.00,168.53 261.00,166.07 353.00,178.87" fill="none" stroke="#dc2626" stroke-width="2.5"/>
<circle cx="77.00" cy="287.49" r="3.5" fill="#dc2626"/>
<circle cx="169.00" cy="168.53" r="3.5" fill="#dc2626"/>
<circle cx="261.00" cy="166.07" r="3.5" fill="#dc2626"/>
<circle cx="353.00" cy="178.87" r="3.5" fill="#dc2626"/>
<polyline points="77.00,299.17 169.00,203.37 261.00,204.70 353.00,205.27" fill="none" stroke="#0f766e" stroke-width="2.5"/>
<circle cx="77.00" cy="299.17" r="3.5" fill="#0f766e"/>
<circle cx="169.00" cy="203.37" r="3.5" fill="#0f766e"/>
<circle cx="261.00" cy="204.70" r="3.5" fill="#0f766e"/>
<circle cx="353.00" cy="205.27" r="3.5" fill="#0f766e"/>
</g>
<g font-family="sans-serif">
<rect x="375" y="108" width="332" height="270" fill="#f8fafc" stroke="#cbd5e1"/>
<text x="541.0" y="131" text-anchor="middle" font-size="15" font-weight="700" fill="#111827">getfnative_v2</text>
<line x1="427" y1="144" x2="427" y2="350" stroke="#334155"/>
<line x1="427" y1="350" x2="703" y2="350" stroke="#334155"/>
<line x1="427" y1="350.00" x2="703" y2="350.00" stroke="#e2e8f0"/>
<text x="420" y="354.00" text-anchor="end" font-size="9" fill="#475569">0</text>
<line x1="427" y1="247.00" x2="703" y2="247.00" stroke="#e2e8f0"/>
<text x="420" y="251.00" text-anchor="end" font-size="9" fill="#475569">264</text>
<line x1="427" y1="144.00" x2="703" y2="144.00" stroke="#e2e8f0"/>
<text x="420" y="148.00" text-anchor="end" font-size="9" fill="#475569">529</text>
<text x="427.00" y="367" text-anchor="middle" font-size="10" fill="#475569">1</text>
<text x="519.00" y="367" text-anchor="middle" font-size="10" fill="#475569">8</text>
<text x="611.00" y="367" text-anchor="middle" font-size="10" fill="#475569">16</text>
<text x="703.00" y="367" text-anchor="middle" font-size="10" fill="#475569">32</text>
<polyline points="427.00,330.17 519.00,284.19 611.00,282.75 703.00,285.74" fill="none" stroke="#64748b" stroke-width="2.5"/>
<circle cx="427.00" cy="330.17" r="3.5" fill="#64748b"/>
<circle cx="519.00" cy="284.19" r="3.5" fill="#64748b"/>
<circle cx="611.00" cy="282.75" r="3.5" fill="#64748b"/>
<circle cx="703.00" cy="285.74" r="3.5" fill="#64748b"/>
<polyline points="427.00,329.35 519.00,284.38 611.00,282.66 703.00,285.66" fill="none" stroke="#d97706" stroke-width="2.5"/>
<circle cx="427.00" cy="329.35" r="3.5" fill="#d97706"/>
<circle cx="519.00" cy="284.38" r="3.5" fill="#d97706"/>
<circle cx="611.00" cy="282.66" r="3.5" fill="#d97706"/>
<circle cx="703.00" cy="285.66" r="3.5" fill="#d97706"/>
<polyline points="427.00,211.07 519.00,166.46 611.00,166.07 703.00,175.82" fill="none" stroke="#2563eb" stroke-width="2.5"/>
<circle cx="427.00" cy="211.07" r="3.5" fill="#2563eb"/>
<circle cx="519.00" cy="166.46" r="3.5" fill="#2563eb"/>
<circle cx="611.00" cy="166.07" r="3.5" fill="#2563eb"/>
<circle cx="703.00" cy="175.82" r="3.5" fill="#2563eb"/>
<polyline points="427.00,259.66 519.00,194.19 611.00,187.80 703.00,192.97" fill="none" stroke="#dc2626" stroke-width="2.5"/>
<circle cx="427.00" cy="259.66" r="3.5" fill="#dc2626"/>
<circle cx="519.00" cy="194.19" r="3.5" fill="#dc2626"/>
<circle cx="611.00" cy="187.80" r="3.5" fill="#dc2626"/>
<circle cx="703.00" cy="192.97" r="3.5" fill="#dc2626"/>
<polyline points="427.00,268.60 519.00,193.75 611.00,190.94 703.00,195.35" fill="none" stroke="#0f766e" stroke-width="2.5"/>
<circle cx="427.00" cy="268.60" r="3.5" fill="#0f766e"/>
<circle cx="519.00" cy="193.75" r="3.5" fill="#0f766e"/>
<circle cx="611.00" cy="190.94" r="3.5" fill="#0f766e"/>
<circle cx="703.00" cy="195.35" r="3.5" fill="#0f766e"/>
</g>
<g font-family="sans-serif">
<rect x="725" y="108" width="332" height="270" fill="#f8fafc" stroke="#cbd5e1"/>
<text x="891.0" y="131" text-anchor="middle" font-size="15" font-weight="700" fill="#111827">selectkernel</text>
<line x1="777" y1="144" x2="777" y2="350" stroke="#334155"/>
<line x1="777" y1="350" x2="1053" y2="350" stroke="#334155"/>
<line x1="777" y1="350.00" x2="1053" y2="350.00" stroke="#e2e8f0"/>
<text x="770" y="354.00" text-anchor="end" font-size="9" fill="#475569">0</text>
<line x1="777" y1="247.00" x2="1053" y2="247.00" stroke="#e2e8f0"/>
<text x="770" y="251.00" text-anchor="end" font-size="9" fill="#475569">96</text>
<line x1="777" y1="144.00" x2="1053" y2="144.00" stroke="#e2e8f0"/>
<text x="770" y="148.00" text-anchor="end" font-size="9" fill="#475569">193</text>
<text x="777.00" y="367" text-anchor="middle" font-size="10" fill="#475569">1</text>
<text x="869.00" y="367" text-anchor="middle" font-size="10" fill="#475569">8</text>
<text x="961.00" y="367" text-anchor="middle" font-size="10" fill="#475569">16</text>
<text x="1053.00" y="367" text-anchor="middle" font-size="10" fill="#475569">32</text>
<polyline points="777.00,331.32 869.00,292.03 961.00,288.17 1053.00,289.50" fill="none" stroke="#64748b" stroke-width="2.5"/>
<circle cx="777.00" cy="331.32" r="3.5" fill="#64748b"/>
<circle cx="869.00" cy="292.03" r="3.5" fill="#64748b"/>
<circle cx="961.00" cy="288.17" r="3.5" fill="#64748b"/>
<circle cx="1053.00" cy="289.50" r="3.5" fill="#64748b"/>
<polyline points="777.00,330.57 869.00,292.79 961.00,290.38 1053.00,290.32" fill="none" stroke="#d97706" stroke-width="2.5"/>
<circle cx="777.00" cy="330.57" r="3.5" fill="#d97706"/>
<circle cx="869.00" cy="292.79" r="3.5" fill="#d97706"/>
<circle cx="961.00" cy="290.38" r="3.5" fill="#d97706"/>
<circle cx="1053.00" cy="290.32" r="3.5" fill="#d97706"/>
<polyline points="777.00,201.47 869.00,166.07 961.00,170.74 1053.00,185.19" fill="none" stroke="#2563eb" stroke-width="2.5"/>
<circle cx="777.00" cy="201.47" r="3.5" fill="#2563eb"/>
<circle cx="869.00" cy="166.07" r="3.5" fill="#2563eb"/>
<circle cx="961.00" cy="170.74" r="3.5" fill="#2563eb"/>
<circle cx="1053.00" cy="185.19" r="3.5" fill="#2563eb"/>
<polyline points="777.00,253.49 869.00,197.84 961.00,205.13 1053.00,208.88" fill="none" stroke="#dc2626" stroke-width="2.5"/>
<circle cx="777.00" cy="253.49" r="3.5" fill="#dc2626"/>
<circle cx="869.00" cy="197.84" r="3.5" fill="#dc2626"/>
<circle cx="961.00" cy="205.13" r="3.5" fill="#dc2626"/>
<circle cx="1053.00" cy="208.88" r="3.5" fill="#dc2626"/>
<polyline points="777.00,269.47 869.00,220.56 961.00,225.73 1053.00,226.35" fill="none" stroke="#0f766e" stroke-width="2.5"/>
<circle cx="777.00" cy="269.47" r="3.5" fill="#0f766e"/>
<circle cx="869.00" cy="220.56" r="3.5" fill="#0f766e"/>
<circle cx="961.00" cy="225.73" r="3.5" fill="#0f766e"/>
<circle cx="1053.00" cy="226.35" r="3.5" fill="#0f766e"/>
</g>
</svg>
